<mxfile host="app.diagrams.net" agent="Mozilla/5.0 (Windows NT 10.0; Win64; x64) AppleWebKit/537.36 (KHTML, like Gecko) Chrome/135.0.0.0 Safari/537.36 Edg/135.0.0.0" version="26.1.3">
  <diagram name="第 1 页" id="9oIQpO3N5rQyr_YoQIKY">
    <mxGraphModel dx="894" dy="1561" grid="1" gridSize="10" guides="1" tooltips="1" connect="1" arrows="1" fold="1" page="1" pageScale="1" pageWidth="1169" pageHeight="827" math="1" shadow="0">
      <root>
        <mxCell id="0" />
        <mxCell id="1" parent="0" />
        <mxCell id="AO_P0Q3c_-_OhgIRzk4a-24" value="" style="edgeStyle=orthogonalEdgeStyle;rounded=0;orthogonalLoop=1;jettySize=auto;html=1;" edge="1" parent="1" source="AO_P0Q3c_-_OhgIRzk4a-6" target="AO_P0Q3c_-_OhgIRzk4a-23">
          <mxGeometry relative="1" as="geometry" />
        </mxCell>
        <mxCell id="AO_P0Q3c_-_OhgIRzk4a-6" value=" sampling point &lt;br&gt;generator" style="rounded=0;whiteSpace=wrap;html=1;direction=east;strokeColor=#6c8ebf;arcSize=0;imageAspect=1;fillColor=#dae8fc;fontSize=15;" vertex="1" parent="1">
          <mxGeometry x="360" y="319" width="140" height="51" as="geometry" />
        </mxCell>
        <mxCell id="AO_P0Q3c_-_OhgIRzk4a-20" value="" style="group" vertex="1" connectable="0" parent="1">
          <mxGeometry x="165" y="400" width="180" height="145" as="geometry" />
        </mxCell>
        <mxCell id="AO_P0Q3c_-_OhgIRzk4a-19" value="&lt;span style=&quot;color: rgba(0, 0, 0, 0); font-family: monospace; font-size: 0px; text-align: start; text-wrap-mode: nowrap;&quot;&gt;%3CmxGraphModel%3E%3Croot%3E%3CmxCell%20id%3D%220%22%2F%3E%3CmxCell%20id%3D%221%22%20parent%3D%220%22%2F%3E%3CmxCell%20id%3D%222%22%20value%3D%22Linear%22%20style%3D%22rounded%3D0%3BwhiteSpace%3Dwrap%3Bhtml%3D1%3Bdirection%3Deast%3BstrokeColor%3D%236c8ebf%3BarcSize%3D0%3BimageAspect%3D1%3BfillColor%3D%23dae8fc%3BfontSize%3D15%3B%22%20vertex%3D%221%22%20parent%3D%221%22%3E%3CmxGeometry%20x%3D%22370%22%20y%3D%22809.5%22%20width%3D%22140%22%20height%3D%2251%22%20as%3D%22geometry%22%2F%3E%3C%2FmxCell%3E%3C%2Froot%3E%3C%2FmxGraphModel%3E&lt;/span&gt;" style="shape=cube;whiteSpace=wrap;html=1;boundedLbl=1;backgroundOutline=1;darkOpacity=0.05;darkOpacity2=0.1;fillColor=#e1d5e7;strokeColor=#9673a6;size=30;rotation=90;" vertex="1" parent="AO_P0Q3c_-_OhgIRzk4a-20">
          <mxGeometry x="40" width="115" height="115" as="geometry" />
        </mxCell>
        <mxCell id="AO_P0Q3c_-_OhgIRzk4a-8" value="$$W$$" style="text;html=1;align=center;verticalAlign=middle;resizable=0;points=[];autosize=1;strokeColor=none;fillColor=none;container=0;" vertex="1" parent="AO_P0Q3c_-_OhgIRzk4a-20">
          <mxGeometry x="60" y="115" width="60" height="30" as="geometry" />
        </mxCell>
        <mxCell id="AO_P0Q3c_-_OhgIRzk4a-9" value="$$H$$" style="text;html=1;align=center;verticalAlign=middle;resizable=0;points=[];autosize=1;strokeColor=none;fillColor=none;container=0;" vertex="1" parent="AO_P0Q3c_-_OhgIRzk4a-20">
          <mxGeometry y="60" width="60" height="30" as="geometry" />
        </mxCell>
        <mxCell id="AO_P0Q3c_-_OhgIRzk4a-10" value="$$X$$" style="text;html=1;align=center;verticalAlign=middle;resizable=0;points=[];autosize=1;strokeColor=none;fillColor=none;container=0;" vertex="1" parent="AO_P0Q3c_-_OhgIRzk4a-20">
          <mxGeometry x="50" y="60" width="60" height="30" as="geometry" />
        </mxCell>
        <mxCell id="AO_P0Q3c_-_OhgIRzk4a-11" value="$$C$$" style="text;html=1;align=center;verticalAlign=middle;resizable=0;points=[];autosize=1;strokeColor=none;fillColor=none;container=0;" vertex="1" parent="AO_P0Q3c_-_OhgIRzk4a-20">
          <mxGeometry x="120" y="90" width="60" height="30" as="geometry" />
        </mxCell>
        <mxCell id="AO_P0Q3c_-_OhgIRzk4a-29" value="" style="group" vertex="1" connectable="0" parent="1">
          <mxGeometry x="487" y="289.5" width="195" height="140" as="geometry" />
        </mxCell>
        <mxCell id="AO_P0Q3c_-_OhgIRzk4a-17" value="$$sH$$" style="text;html=1;align=center;verticalAlign=middle;resizable=0;points=[];autosize=1;strokeColor=none;fillColor=none;" vertex="1" parent="AO_P0Q3c_-_OhgIRzk4a-29">
          <mxGeometry y="60.5" width="60" height="30" as="geometry" />
        </mxCell>
        <mxCell id="AO_P0Q3c_-_OhgIRzk4a-23" value="" style="shape=cube;whiteSpace=wrap;html=1;boundedLbl=1;backgroundOutline=1;darkOpacity=0.05;darkOpacity2=0.1;fillColor=#e1d5e7;strokeColor=#9673a6;size=11;rotation=90;aspect=fixed;align=center;container=0;" vertex="1" parent="AO_P0Q3c_-_OhgIRzk4a-29">
          <mxGeometry x="45" width="110" height="110" as="geometry" />
        </mxCell>
        <mxCell id="AO_P0Q3c_-_OhgIRzk4a-25" value="&lt;span style=&quot;color: rgb(0, 0, 0); font-family: Helvetica; font-style: normal; font-variant-ligatures: normal; font-variant-caps: normal; font-weight: 400; letter-spacing: normal; orphans: 2; text-align: center; text-indent: 0px; text-transform: none; widows: 2; word-spacing: 0px; -webkit-text-stroke-width: 0px; white-space: normal; text-decoration-thickness: initial; text-decoration-style: initial; text-decoration-color: initial; float: none; display: inline !important;&quot;&gt;sampling set&lt;/span&gt;" style="text;whiteSpace=wrap;html=1;fillColor=none;container=0;fontSize=15;" vertex="1" parent="AO_P0Q3c_-_OhgIRzk4a-29">
          <mxGeometry x="50" y="40.5" width="90" height="39.5" as="geometry" />
        </mxCell>
        <mxCell id="AO_P0Q3c_-_OhgIRzk4a-26" value="$$sW$$" style="text;html=1;align=center;verticalAlign=middle;resizable=0;points=[];autosize=1;strokeColor=none;fillColor=none;container=0;" vertex="1" parent="AO_P0Q3c_-_OhgIRzk4a-29">
          <mxGeometry x="60" y="110" width="70" height="30" as="geometry" />
        </mxCell>
        <mxCell id="AO_P0Q3c_-_OhgIRzk4a-27" value="$$2g$$" style="text;html=1;align=center;verticalAlign=middle;resizable=0;points=[];autosize=1;strokeColor=none;fillColor=none;container=0;" vertex="1" parent="AO_P0Q3c_-_OhgIRzk4a-29">
          <mxGeometry x="135" y="94.5" width="60" height="30" as="geometry" />
        </mxCell>
        <mxCell id="AO_P0Q3c_-_OhgIRzk4a-30" value="grid sample" style="rounded=0;whiteSpace=wrap;html=1;direction=east;strokeColor=#6c8ebf;arcSize=0;imageAspect=1;fillColor=#dae8fc;" vertex="1" parent="1">
          <mxGeometry x="643" y="431.5" width="140" height="51" as="geometry" />
        </mxCell>
        <mxCell id="AO_P0Q3c_-_OhgIRzk4a-32" style="edgeStyle=orthogonalEdgeStyle;rounded=0;orthogonalLoop=1;jettySize=auto;html=1;" edge="1" parent="1" source="AO_P0Q3c_-_OhgIRzk4a-19" target="AO_P0Q3c_-_OhgIRzk4a-30">
          <mxGeometry relative="1" as="geometry" />
        </mxCell>
        <mxCell id="AO_P0Q3c_-_OhgIRzk4a-36" style="edgeStyle=orthogonalEdgeStyle;rounded=0;orthogonalLoop=1;jettySize=auto;html=1;entryX=0;entryY=0.5;entryDx=0;entryDy=0;" edge="1" parent="1" source="AO_P0Q3c_-_OhgIRzk4a-19" target="AO_P0Q3c_-_OhgIRzk4a-6">
          <mxGeometry relative="1" as="geometry">
            <Array as="points">
              <mxPoint x="263" y="345" />
              <mxPoint x="340" y="345" />
            </Array>
          </mxGeometry>
        </mxCell>
        <mxCell id="AO_P0Q3c_-_OhgIRzk4a-38" style="edgeStyle=orthogonalEdgeStyle;rounded=0;orthogonalLoop=1;jettySize=auto;html=1;exitX=0;exitY=0;exitDx=49.5;exitDy=0;exitPerimeter=0;" edge="1" parent="1" source="AO_P0Q3c_-_OhgIRzk4a-23" target="AO_P0Q3c_-_OhgIRzk4a-30">
          <mxGeometry relative="1" as="geometry" />
        </mxCell>
        <mxCell id="AO_P0Q3c_-_OhgIRzk4a-49" value="" style="group" vertex="1" connectable="0" parent="1">
          <mxGeometry x="786" y="369" width="179" height="152.5" as="geometry" />
        </mxCell>
        <mxCell id="AO_P0Q3c_-_OhgIRzk4a-18" value="" style="shape=cube;whiteSpace=wrap;html=1;boundedLbl=1;backgroundOutline=1;darkOpacity=0.05;darkOpacity2=0.1;fillColor=#e1d5e7;strokeColor=#9673a6;size=50;rotation=90;aspect=fixed;" vertex="1" parent="AO_P0Q3c_-_OhgIRzk4a-49">
          <mxGeometry x="35.8" width="125.97826086956522" height="125.97826086956522" as="geometry" />
        </mxCell>
        <mxCell id="AO_P0Q3c_-_OhgIRzk4a-39" value="$$sH$$" style="text;html=1;align=center;verticalAlign=middle;resizable=0;points=[];autosize=1;strokeColor=none;fillColor=none;" vertex="1" parent="AO_P0Q3c_-_OhgIRzk4a-49">
          <mxGeometry x="-5" y="99.45652173913044" width="60" height="30" as="geometry" />
        </mxCell>
        <mxCell id="AO_P0Q3c_-_OhgIRzk4a-40" value="$$sW$$" style="text;html=1;align=center;verticalAlign=middle;resizable=0;points=[];autosize=1;strokeColor=none;fillColor=none;" vertex="1" parent="AO_P0Q3c_-_OhgIRzk4a-49">
          <mxGeometry x="44.75" y="125.97826086956522" width="70" height="30" as="geometry" />
        </mxCell>
        <mxCell id="AO_P0Q3c_-_OhgIRzk4a-41" value="$$C$$" style="text;html=1;align=center;verticalAlign=middle;resizable=0;points=[];autosize=1;strokeColor=none;fillColor=none;" vertex="1" parent="AO_P0Q3c_-_OhgIRzk4a-49">
          <mxGeometry x="125.3" y="99.45652173913044" width="60" height="30" as="geometry" />
        </mxCell>
        <mxCell id="AO_P0Q3c_-_OhgIRzk4a-48" value="&lt;span style=&quot;color: rgb(77, 77, 77); font-family: -apple-system, &amp;quot;SF UI Text&amp;quot;, Arial, &amp;quot;PingFang SC&amp;quot;, &amp;quot;Hiragino Sans GB&amp;quot;, &amp;quot;Microsoft YaHei&amp;quot;, &amp;quot;WenQuanYi Micro Hei&amp;quot;, sans-serif, SimHei, SimSun; font-size: 16px; font-style: normal; font-variant-ligatures: normal; font-variant-caps: normal; font-weight: 400; letter-spacing: normal; orphans: 2; text-align: start; text-indent: 0px; text-transform: none; widows: 2; word-spacing: 0px; -webkit-text-stroke-width: 0px; white-space: normal; background-color: rgb(255, 255, 255); text-decoration-thickness: initial; text-decoration-style: initial; text-decoration-color: initial; float: none; display: inline !important;&quot;&gt;$$X^{&#39;}$$&lt;/span&gt;" style="text;whiteSpace=wrap;html=1;" vertex="1" parent="AO_P0Q3c_-_OhgIRzk4a-49">
          <mxGeometry x="66.23" y="61" width="53.7" height="35.36231884057971" as="geometry" />
        </mxCell>
        <mxCell id="AO_P0Q3c_-_OhgIRzk4a-52" style="edgeStyle=orthogonalEdgeStyle;rounded=0;orthogonalLoop=1;jettySize=auto;html=1;entryX=0;entryY=0;entryDx=87.98913043478261;entryDy=125.97826086956522;entryPerimeter=0;" edge="1" parent="1" source="AO_P0Q3c_-_OhgIRzk4a-30" target="AO_P0Q3c_-_OhgIRzk4a-18">
          <mxGeometry relative="1" as="geometry" />
        </mxCell>
        <mxCell id="AO_P0Q3c_-_OhgIRzk4a-54" value="DySample 结构图" style="text;whiteSpace=wrap;html=1;" vertex="1" parent="1">
          <mxGeometry x="420" y="690" width="230" height="40" as="geometry" />
        </mxCell>
        <mxCell id="AO_P0Q3c_-_OhgIRzk4a-55" value="Sampling point generator in DySample" style="text;whiteSpace=wrap;html=1;" vertex="1" parent="1">
          <mxGeometry x="360" y="1280" width="240" height="40" as="geometry" />
        </mxCell>
        <mxCell id="AO_P0Q3c_-_OhgIRzk4a-57" style="edgeStyle=orthogonalEdgeStyle;rounded=0;orthogonalLoop=1;jettySize=auto;html=1;entryX=0;entryY=0.5;entryDx=0;entryDy=0;" edge="1" parent="1" target="AO_P0Q3c_-_OhgIRzk4a-58">
          <mxGeometry relative="1" as="geometry">
            <mxPoint x="238" y="980.5" as="targetPoint" />
            <mxPoint x="190" y="1060" as="sourcePoint" />
            <Array as="points">
              <mxPoint x="190" y="965" />
            </Array>
          </mxGeometry>
        </mxCell>
        <mxCell id="AO_P0Q3c_-_OhgIRzk4a-69" style="edgeStyle=orthogonalEdgeStyle;rounded=0;orthogonalLoop=1;jettySize=auto;html=1;entryX=0;entryY=0.5;entryDx=0;entryDy=0;" edge="1" parent="1" source="AO_P0Q3c_-_OhgIRzk4a-112" target="AO_P0Q3c_-_OhgIRzk4a-59">
          <mxGeometry relative="1" as="geometry">
            <mxPoint x="152" y="1063" as="sourcePoint" />
          </mxGeometry>
        </mxCell>
        <mxCell id="AO_P0Q3c_-_OhgIRzk4a-61" value="" style="edgeStyle=orthogonalEdgeStyle;rounded=0;orthogonalLoop=1;jettySize=auto;html=1;" edge="1" parent="1" source="AO_P0Q3c_-_OhgIRzk4a-58" target="AO_P0Q3c_-_OhgIRzk4a-60">
          <mxGeometry relative="1" as="geometry" />
        </mxCell>
        <mxCell id="AO_P0Q3c_-_OhgIRzk4a-58" value="Linear" style="rounded=0;whiteSpace=wrap;html=1;direction=east;strokeColor=#6c8ebf;arcSize=0;imageAspect=1;fillColor=#dae8fc;fontSize=15;" vertex="1" parent="1">
          <mxGeometry x="208" y="950.5" width="65" height="30" as="geometry" />
        </mxCell>
        <mxCell id="AO_P0Q3c_-_OhgIRzk4a-63" value="" style="edgeStyle=orthogonalEdgeStyle;rounded=0;orthogonalLoop=1;jettySize=auto;html=1;" edge="1" parent="1" source="AO_P0Q3c_-_OhgIRzk4a-59" target="AO_P0Q3c_-_OhgIRzk4a-62">
          <mxGeometry relative="1" as="geometry" />
        </mxCell>
        <mxCell id="AO_P0Q3c_-_OhgIRzk4a-59" value="Linear" style="rounded=0;whiteSpace=wrap;html=1;direction=east;strokeColor=#6c8ebf;arcSize=0;imageAspect=1;fillColor=#dae8fc;fontSize=15;" vertex="1" parent="1">
          <mxGeometry x="208" y="1048" width="65" height="30" as="geometry" />
        </mxCell>
        <mxCell id="AO_P0Q3c_-_OhgIRzk4a-65" value="" style="edgeStyle=orthogonalEdgeStyle;rounded=0;orthogonalLoop=1;jettySize=auto;html=1;" edge="1" parent="1" source="AO_P0Q3c_-_OhgIRzk4a-60" target="AO_P0Q3c_-_OhgIRzk4a-64">
          <mxGeometry relative="1" as="geometry" />
        </mxCell>
        <mxCell id="AO_P0Q3c_-_OhgIRzk4a-67" style="edgeStyle=orthogonalEdgeStyle;rounded=0;orthogonalLoop=1;jettySize=auto;html=1;entryX=0.5;entryY=1;entryDx=0;entryDy=0;" edge="1" parent="1" source="AO_P0Q3c_-_OhgIRzk4a-62" target="AO_P0Q3c_-_OhgIRzk4a-66">
          <mxGeometry relative="1" as="geometry" />
        </mxCell>
        <mxCell id="AO_P0Q3c_-_OhgIRzk4a-68" style="edgeStyle=orthogonalEdgeStyle;rounded=0;orthogonalLoop=1;jettySize=auto;html=1;entryX=0.5;entryY=0;entryDx=0;entryDy=0;" edge="1" parent="1" source="AO_P0Q3c_-_OhgIRzk4a-64" target="AO_P0Q3c_-_OhgIRzk4a-66">
          <mxGeometry relative="1" as="geometry" />
        </mxCell>
        <mxCell id="AO_P0Q3c_-_OhgIRzk4a-64" value="$$0.5\sigma$$" style="rounded=0;whiteSpace=wrap;html=1;direction=east;strokeColor=#6c8ebf;arcSize=0;imageAspect=1;fillColor=#dae8fc;fontSize=15;" vertex="1" parent="1">
          <mxGeometry x="434" y="950.5" width="65" height="30" as="geometry" />
        </mxCell>
        <mxCell id="AO_P0Q3c_-_OhgIRzk4a-71" value="" style="edgeStyle=orthogonalEdgeStyle;rounded=0;orthogonalLoop=1;jettySize=auto;html=1;" edge="1" parent="1" source="AO_P0Q3c_-_OhgIRzk4a-104" target="AO_P0Q3c_-_OhgIRzk4a-70">
          <mxGeometry relative="1" as="geometry" />
        </mxCell>
        <mxCell id="AO_P0Q3c_-_OhgIRzk4a-66" value="" style="shape=orEllipse;perimeter=ellipsePerimeter;whiteSpace=wrap;html=1;backgroundOutline=1;aspect=fixed;" vertex="1" parent="1">
          <mxGeometry x="505" y="1003" width="35" height="35" as="geometry" />
        </mxCell>
        <mxCell id="AO_P0Q3c_-_OhgIRzk4a-74" value="" style="edgeStyle=orthogonalEdgeStyle;rounded=0;orthogonalLoop=1;jettySize=auto;html=1;" edge="1" parent="1" source="AO_P0Q3c_-_OhgIRzk4a-70" target="AO_P0Q3c_-_OhgIRzk4a-73">
          <mxGeometry relative="1" as="geometry" />
        </mxCell>
        <mxCell id="AO_P0Q3c_-_OhgIRzk4a-73" value="" style="shape=orEllipse;perimeter=ellipsePerimeter;whiteSpace=wrap;html=1;backgroundOutline=1;aspect=fixed;" vertex="1" parent="1">
          <mxGeometry x="766" y="1067" width="35" height="35" as="geometry" />
        </mxCell>
        <mxCell id="AO_P0Q3c_-_OhgIRzk4a-106" value="" style="edgeStyle=orthogonalEdgeStyle;rounded=0;orthogonalLoop=1;jettySize=auto;html=1;" edge="1" parent="1" source="AO_P0Q3c_-_OhgIRzk4a-66" target="AO_P0Q3c_-_OhgIRzk4a-104">
          <mxGeometry relative="1" as="geometry">
            <mxPoint x="540" y="1021" as="sourcePoint" />
            <mxPoint x="671" y="1020" as="targetPoint" />
          </mxGeometry>
        </mxCell>
        <mxCell id="AO_P0Q3c_-_OhgIRzk4a-104" value="&lt;span style=&quot;font-size: 12px; text-align: left;&quot;&gt;pixel&lt;/span&gt;&lt;div&gt;&lt;span style=&quot;font-size: 12px; text-align: left;&quot;&gt;shuffle&amp;nbsp;&lt;/span&gt;&lt;/div&gt;" style="rounded=0;whiteSpace=wrap;html=1;direction=east;strokeColor=#6c8ebf;arcSize=0;imageAspect=1;fillColor=#dae8fc;fontSize=15;" vertex="1" parent="1">
          <mxGeometry x="571" y="995.25" width="60" height="50" as="geometry" />
        </mxCell>
        <mxCell id="AO_P0Q3c_-_OhgIRzk4a-107" value="" style="group" vertex="1" connectable="0" parent="1">
          <mxGeometry x="275" y="925.75" width="175" height="107.25" as="geometry" />
        </mxCell>
        <mxCell id="AO_P0Q3c_-_OhgIRzk4a-60" value="&lt;span style=&quot;color: rgba(0, 0, 0, 0); font-family: monospace; font-size: 0px; text-align: start; text-wrap-mode: nowrap;&quot;&gt;%3CmxGraphModel%3E%3Croot%3E%3CmxCell%20id%3D%220%22%2F%3E%3CmxCell%20id%3D%221%22%20parent%3D%220%22%2F%3E%3CmxCell%20id%3D%222%22%20value%3D%22Linear%22%20style%3D%22rounded%3D0%3BwhiteSpace%3Dwrap%3Bhtml%3D1%3Bdirection%3Deast%3BstrokeColor%3D%236c8ebf%3BarcSize%3D0%3BimageAspect%3D1%3BfillColor%3D%23dae8fc%3BfontSize%3D15%3B%22%20vertex%3D%221%22%20parent%3D%221%22%3E%3CmxGeometry%20x%3D%22370%22%20y%3D%22809.5%22%20width%3D%22140%22%20height%3D%2251%22%20as%3D%22geometry%22%2F%3E%3C%2FmxCell%3E%3C%2Froot%3E%3C%2FmxGraphModel%3E&lt;/span&gt;" style="shape=cube;whiteSpace=wrap;html=1;boundedLbl=1;backgroundOutline=1;darkOpacity=0.05;darkOpacity2=0.1;fillColor=#ffe6cc;strokeColor=#d79b00;size=20;rotation=90;" vertex="1" parent="AO_P0Q3c_-_OhgIRzk4a-107">
          <mxGeometry x="41" y="1.25" width="80" height="77.5" as="geometry" />
        </mxCell>
        <mxCell id="AO_P0Q3c_-_OhgIRzk4a-80" value="&lt;font style=&quot;font-size: 15px;&quot;&gt;$$O_1$$&lt;/font&gt;" style="text;html=1;align=center;verticalAlign=middle;resizable=0;points=[];autosize=1;strokeColor=none;fillColor=none;" vertex="1" parent="AO_P0Q3c_-_OhgIRzk4a-107">
          <mxGeometry x="35" y="34.25" width="90" height="30" as="geometry" />
        </mxCell>
        <mxCell id="AO_P0Q3c_-_OhgIRzk4a-81" value="&lt;font style=&quot;font-size: 15px;&quot;&gt;$$H$$&lt;/font&gt;" style="text;html=1;align=center;verticalAlign=middle;resizable=0;points=[];autosize=1;strokeColor=none;fillColor=none;" vertex="1" parent="AO_P0Q3c_-_OhgIRzk4a-107">
          <mxGeometry x="-5" y="48.75" width="70" height="30" as="geometry" />
        </mxCell>
        <mxCell id="AO_P0Q3c_-_OhgIRzk4a-82" value="$$W$$" style="text;html=1;align=center;verticalAlign=middle;resizable=0;points=[];autosize=1;strokeColor=none;fillColor=none;" vertex="1" parent="AO_P0Q3c_-_OhgIRzk4a-107">
          <mxGeometry x="46" y="77.25" width="60" height="30" as="geometry" />
        </mxCell>
        <mxCell id="AO_P0Q3c_-_OhgIRzk4a-84" value="&lt;font style=&quot;font-size: 15px;&quot;&gt;$$2gs^2$$&lt;/font&gt;" style="text;html=1;align=center;verticalAlign=middle;resizable=0;points=[];autosize=1;strokeColor=none;fillColor=none;" vertex="1" parent="AO_P0Q3c_-_OhgIRzk4a-107">
          <mxGeometry x="75" y="64.25" width="100" height="30" as="geometry" />
        </mxCell>
        <mxCell id="AO_P0Q3c_-_OhgIRzk4a-108" value="" style="group" vertex="1" connectable="0" parent="1">
          <mxGeometry x="275" y="1023.25" width="175" height="108.75" as="geometry" />
        </mxCell>
        <mxCell id="AO_P0Q3c_-_OhgIRzk4a-62" value="&lt;span style=&quot;color: rgba(0, 0, 0, 0); font-family: monospace; font-size: 0px; text-align: start; text-wrap-mode: nowrap;&quot;&gt;%3CmxGraphModel%3E%3Croot%3E%3CmxCell%20id%3D%220%22%2F%3E%3CmxCell%20id%3D%221%22%20parent%3D%220%22%2F%3E%3CmxCell%20id%3D%222%22%20value%3D%22Linear%22%20style%3D%22rounded%3D0%3BwhiteSpace%3Dwrap%3Bhtml%3D1%3Bdirection%3Deast%3BstrokeColor%3D%236c8ebf%3BarcSize%3D0%3BimageAspect%3D1%3BfillColor%3D%23dae8fc%3BfontSize%3D15%3B%22%20vertex%3D%221%22%20parent%3D%221%22%3E%3CmxGeometry%20x%3D%22370%22%20y%3D%22809.5%22%20width%3D%22140%22%20height%3D%2251%22%20as%3D%22geometry%22%2F%3E%3C%2FmxCell%3E%3C%2Froot%3E%3C%2FmxGraphModel%3E&lt;/span&gt;" style="shape=cube;whiteSpace=wrap;html=1;boundedLbl=1;backgroundOutline=1;darkOpacity=0.05;darkOpacity2=0.1;fillColor=#fad7ac;strokeColor=#b46504;size=20;rotation=90;" vertex="1" parent="AO_P0Q3c_-_OhgIRzk4a-108">
          <mxGeometry x="36" y="1.25" width="80" height="77.5" as="geometry" />
        </mxCell>
        <mxCell id="AO_P0Q3c_-_OhgIRzk4a-96" value="&lt;font style=&quot;font-size: 15px;&quot;&gt;$$O_2$$&lt;/font&gt;" style="text;html=1;align=center;verticalAlign=middle;resizable=0;points=[];autosize=1;strokeColor=none;fillColor=none;" vertex="1" parent="AO_P0Q3c_-_OhgIRzk4a-108">
          <mxGeometry x="26" y="35.75" width="90" height="30" as="geometry" />
        </mxCell>
        <mxCell id="AO_P0Q3c_-_OhgIRzk4a-97" value="&lt;font style=&quot;font-size: 15px;&quot;&gt;$$H$$&lt;/font&gt;" style="text;html=1;align=center;verticalAlign=middle;resizable=0;points=[];autosize=1;strokeColor=none;fillColor=none;" vertex="1" parent="AO_P0Q3c_-_OhgIRzk4a-108">
          <mxGeometry x="-5" y="48.75" width="70" height="30" as="geometry" />
        </mxCell>
        <mxCell id="AO_P0Q3c_-_OhgIRzk4a-98" value="&lt;font style=&quot;font-size: 15px;&quot;&gt;$$W$$&lt;/font&gt;" style="text;html=1;align=center;verticalAlign=middle;resizable=0;points=[];autosize=1;strokeColor=none;fillColor=none;" vertex="1" parent="AO_P0Q3c_-_OhgIRzk4a-108">
          <mxGeometry x="36" y="78.75" width="70" height="30" as="geometry" />
        </mxCell>
        <mxCell id="AO_P0Q3c_-_OhgIRzk4a-99" value="&lt;font style=&quot;font-size: 15px;&quot;&gt;$$2gs^2$$&lt;/font&gt;" style="text;html=1;align=center;verticalAlign=middle;resizable=0;points=[];autosize=1;strokeColor=none;fillColor=none;" vertex="1" parent="AO_P0Q3c_-_OhgIRzk4a-108">
          <mxGeometry x="75" y="65.75" width="100" height="30" as="geometry" />
        </mxCell>
        <mxCell id="AO_P0Q3c_-_OhgIRzk4a-110" value="" style="group" vertex="1" connectable="0" parent="1">
          <mxGeometry x="600" y="1103.75" width="159" height="112.25" as="geometry" />
        </mxCell>
        <mxCell id="AO_P0Q3c_-_OhgIRzk4a-101" value="$$sH$$" style="text;html=1;align=center;verticalAlign=middle;resizable=0;points=[];autosize=1;strokeColor=none;fillColor=none;fontSize=15;" vertex="1" parent="AO_P0Q3c_-_OhgIRzk4a-110">
          <mxGeometry x="-10" y="48.75" width="80" height="30" as="geometry" />
        </mxCell>
        <mxCell id="AO_P0Q3c_-_OhgIRzk4a-72" value="&lt;span style=&quot;color: rgba(0, 0, 0, 0); font-family: monospace; font-size: 0px; text-align: start; text-wrap-mode: nowrap;&quot;&gt;%3CmxGraphModel%3E%3Croot%3E%3CmxCell%20id%3D%220%22%2F%3E%3CmxCell%20id%3D%221%22%20parent%3D%220%22%2F%3E%3CmxCell%20id%3D%222%22%20value%3D%22Linear%22%20style%3D%22rounded%3D0%3BwhiteSpace%3Dwrap%3Bhtml%3D1%3Bdirection%3Deast%3BstrokeColor%3D%236c8ebf%3BarcSize%3D0%3BimageAspect%3D1%3BfillColor%3D%23dae8fc%3BfontSize%3D15%3B%22%20vertex%3D%221%22%20parent%3D%221%22%3E%3CmxGeometry%20x%3D%22370%22%20y%3D%22809.5%22%20width%3D%22140%22%20height%3D%2251%22%20as%3D%22geometry%22%2F%3E%3C%2FmxCell%3E%3C%2Froot%3E%3C%2FmxGraphModel%3E&lt;/span&gt;" style="shape=cube;whiteSpace=wrap;html=1;boundedLbl=1;backgroundOutline=1;darkOpacity=0.05;darkOpacity2=0.1;fillColor=#e1d5e7;strokeColor=#9673a6;size=16;rotation=90;" vertex="1" parent="AO_P0Q3c_-_OhgIRzk4a-110">
          <mxGeometry x="41" y="1.25" width="80" height="77.5" as="geometry" />
        </mxCell>
        <mxCell id="AO_P0Q3c_-_OhgIRzk4a-100" value="&lt;font style=&quot;font-size: 15px;&quot;&gt;$$G$$&lt;/font&gt;" style="text;html=1;align=center;verticalAlign=middle;resizable=0;points=[];autosize=1;strokeColor=none;fillColor=none;" vertex="1" parent="AO_P0Q3c_-_OhgIRzk4a-110">
          <mxGeometry x="39" y="31.25" width="70" height="30" as="geometry" />
        </mxCell>
        <mxCell id="AO_P0Q3c_-_OhgIRzk4a-102" value="$$sW$$" style="text;html=1;align=center;verticalAlign=middle;resizable=0;points=[];autosize=1;strokeColor=none;fillColor=none;fontSize=15;" vertex="1" parent="AO_P0Q3c_-_OhgIRzk4a-110">
          <mxGeometry x="41" y="82.25" width="80" height="30" as="geometry" />
        </mxCell>
        <mxCell id="AO_P0Q3c_-_OhgIRzk4a-103" value="$$2g$$" style="text;html=1;align=center;verticalAlign=middle;resizable=0;points=[];autosize=1;strokeColor=none;fillColor=none;fontSize=15;" vertex="1" parent="AO_P0Q3c_-_OhgIRzk4a-110">
          <mxGeometry x="89" y="71.25" width="70" height="30" as="geometry" />
        </mxCell>
        <mxCell id="AO_P0Q3c_-_OhgIRzk4a-111" value="" style="group;fontSize=15;" vertex="1" connectable="0" parent="1">
          <mxGeometry x="631" y="980.25" width="158" height="108.75" as="geometry" />
        </mxCell>
        <mxCell id="AO_P0Q3c_-_OhgIRzk4a-70" value="&lt;span style=&quot;color: rgba(0, 0, 0, 0); font-family: monospace; font-size: 0px; text-align: start; text-wrap-mode: nowrap;&quot;&gt;%3CmxGraphModel%3E%3Croot%3E%3CmxCell%20id%3D%220%22%2F%3E%3CmxCell%20id%3D%221%22%20parent%3D%220%22%2F%3E%3CmxCell%20id%3D%222%22%20value%3D%22Linear%22%20style%3D%22rounded%3D0%3BwhiteSpace%3Dwrap%3Bhtml%3D1%3Bdirection%3Deast%3BstrokeColor%3D%236c8ebf%3BarcSize%3D0%3BimageAspect%3D1%3BfillColor%3D%23dae8fc%3BfontSize%3D15%3B%22%20vertex%3D%221%22%20parent%3D%221%22%3E%3CmxGeometry%20x%3D%22370%22%20y%3D%22809.5%22%20width%3D%22140%22%20height%3D%2251%22%20as%3D%22geometry%22%2F%3E%3C%2FmxCell%3E%3C%2Froot%3E%3C%2FmxGraphModel%3E&lt;/span&gt;" style="shape=cube;whiteSpace=wrap;html=1;boundedLbl=1;backgroundOutline=1;darkOpacity=0.05;darkOpacity2=0.1;fillColor=#fff2cc;strokeColor=#d6b656;size=16;rotation=90;gradientColor=#ffd966;" vertex="1" parent="AO_P0Q3c_-_OhgIRzk4a-111">
          <mxGeometry x="39" y="1.25" width="80" height="77.5" as="geometry" />
        </mxCell>
        <mxCell id="AO_P0Q3c_-_OhgIRzk4a-85" value="&lt;font style=&quot;font-size: 15px;&quot;&gt;$$O$$&lt;/font&gt;" style="text;html=1;align=center;verticalAlign=middle;resizable=0;points=[];autosize=1;strokeColor=none;fillColor=none;" vertex="1" parent="AO_P0Q3c_-_OhgIRzk4a-111">
          <mxGeometry x="44" y="35" width="70" height="30" as="geometry" />
        </mxCell>
        <mxCell id="AO_P0Q3c_-_OhgIRzk4a-86" value="$$sH$$" style="text;html=1;align=center;verticalAlign=middle;resizable=0;points=[];autosize=1;strokeColor=none;fillColor=none;fontSize=15;" vertex="1" parent="AO_P0Q3c_-_OhgIRzk4a-111">
          <mxGeometry x="-10" y="52.75" width="80" height="30" as="geometry" />
        </mxCell>
        <mxCell id="AO_P0Q3c_-_OhgIRzk4a-87" value="$$sW$$" style="text;html=1;align=center;verticalAlign=middle;resizable=0;points=[];autosize=1;strokeColor=none;fillColor=none;fontSize=15;" vertex="1" parent="AO_P0Q3c_-_OhgIRzk4a-111">
          <mxGeometry x="35" y="78.75" width="80" height="30" as="geometry" />
        </mxCell>
        <mxCell id="AO_P0Q3c_-_OhgIRzk4a-88" value="$$2g$$" style="text;html=1;align=center;verticalAlign=middle;resizable=0;points=[];autosize=1;strokeColor=none;fillColor=none;fontSize=15;" vertex="1" parent="AO_P0Q3c_-_OhgIRzk4a-111">
          <mxGeometry x="88" y="68" width="70" height="30" as="geometry" />
        </mxCell>
        <mxCell id="AO_P0Q3c_-_OhgIRzk4a-112" value="$$X$$" style="whiteSpace=wrap;html=1;fillColor=none;fontSize=15;strokeColor=none;" vertex="1" parent="1">
          <mxGeometry x="153" y="1048" width="30" height="30" as="geometry" />
        </mxCell>
        <mxCell id="AO_P0Q3c_-_OhgIRzk4a-118" value="" style="edgeStyle=orthogonalEdgeStyle;rounded=0;orthogonalLoop=1;jettySize=auto;html=1;" edge="1" parent="1" source="AO_P0Q3c_-_OhgIRzk4a-73" target="AO_P0Q3c_-_OhgIRzk4a-116">
          <mxGeometry relative="1" as="geometry">
            <mxPoint x="801" y="1085" as="sourcePoint" />
            <mxPoint x="898.5" y="1084.5" as="targetPoint" />
          </mxGeometry>
        </mxCell>
        <mxCell id="AO_P0Q3c_-_OhgIRzk4a-116" value="$$S$$" style="whiteSpace=wrap;html=1;fillColor=none;fontSize=15;strokeColor=none;" vertex="1" parent="1">
          <mxGeometry x="831.3" y="1070" width="30" height="30" as="geometry" />
        </mxCell>
        <mxCell id="AO_P0Q3c_-_OhgIRzk4a-119" style="edgeStyle=orthogonalEdgeStyle;rounded=0;orthogonalLoop=1;jettySize=auto;html=1;entryX=0.5;entryY=1;entryDx=0;entryDy=0;" edge="1" parent="1" target="AO_P0Q3c_-_OhgIRzk4a-73">
          <mxGeometry relative="1" as="geometry">
            <mxPoint x="724" y="1150" as="sourcePoint" />
          </mxGeometry>
        </mxCell>
        <mxCell id="K-rQHarK1mUHMqbomgQv-1" value="&lt;font style=&quot;font-size: 15px;&quot;&gt;动态点采样集生成器&lt;/font&gt;" style="text;html=1;align=center;verticalAlign=middle;resizable=0;points=[];autosize=1;strokeColor=none;fillColor=none;" vertex="1" parent="1">
          <mxGeometry x="411" y="1358" width="160" height="30" as="geometry" />
        </mxCell>
      </root>
    </mxGraphModel>
  </diagram>
</mxfile>
